<svg xmlns="http://www.w3.org/2000/svg" viewBox="0 0 192 192" width="192" height="192">
  <rect width="192" height="192" rx="40" fill="#FFB74D"/>
  <!-- 耳 -->
  <circle cx="56" cy="66" r="22" fill="#C8885A"/>
  <circle cx="56" cy="66" r="13" fill="#E5AC7A"/>
  <circle cx="136" cy="66" r="22" fill="#C8885A"/>
  <circle cx="136" cy="66" r="13" fill="#E5AC7A"/>
  <!-- 頭 -->
  <circle cx="96" cy="92" r="50" fill="#C8885A"/>
  <ellipse cx="96" cy="106" rx="30" ry="24" fill="#E5AC7A"/>
  <!-- 目 -->
  <circle cx="80" cy="85" r="8" fill="#3E2000"/>
  <circle cx="112" cy="85" r="8" fill="#3E2000"/>
  <circle cx="82" cy="83" r="3" fill="white"/>
  <circle cx="114" cy="83" r="3" fill="white"/>
  <!-- 鼻 -->
  <ellipse cx="96" cy="100" rx="7" ry="5" fill="#3E2000"/>
  <!-- 口 -->
  <path d="M88 108 Q96 116 104 108" stroke="#3E2000" stroke-width="3" fill="none" stroke-linecap="round"/>
  <!-- ほっぺ -->
  <ellipse cx="72" cy="104" rx="11" ry="8" fill="#FF9999" opacity="0.5"/>
  <ellipse cx="120" cy="104" rx="11" ry="8" fill="#FF9999" opacity="0.5"/>
  <!-- 体 -->
  <ellipse cx="96" cy="158" rx="46" ry="38" fill="#C8885A"/>
  <ellipse cx="96" cy="162" rx="26" ry="24" fill="#E5AC7A"/>
</svg>
